<?xml version="1.0" encoding="UTF-8" standalone="no"?>
<svg xmlns:xlink="http://www.w3.org/1999/xlink" height="129.0px" width="127.2px" xmlns="http://www.w3.org/2000/svg">
  <g transform="matrix(1.0, 0.0, 0.0, 1.0, -1.8, 0.2)">
    <path d="M14.65 36.0 L15.4 35.95 Q19.15 34.15 15.95 31.65 L9.4 29.9 15.15 25.35 21.85 26.55 Q25.8 25.95 24.3 22.6 L18.05 19.6 24.2 16.0 30.7 18.5 Q34.95 17.9 33.35 15.0 L27.9 10.3 35.0 8.75 41.3 12.6 Q44.85 13.0 44.65 9.8 L40.35 4.45 46.8 3.95 52.45 9.3 Q55.3 9.95 56.1 7.25 L53.85 0.75 59.9 1.7 63.65 7.55 Q66.45 9.5 68.15 6.65 L66.8 0.3 73.1 2.15 75.5 8.65 Q77.1 11.05 80.05 8.85 L80.15 1.85 85.75 5.25 86.75 12.2 Q88.7 14.7 90.95 13.35 L92.3 7.05 97.5 11.0 97.1 19.0 Q98.45 21.1 100.7 20.1 L103.8 13.15 107.8 18.75 105.85 25.7 Q105.8 29.5 109.45 28.35 L113.45 22.45 116.1 29.4 113.2 34.7 Q111.8 38.65 115.8 38.25 L121.0 33.95 122.45 40.75 117.5 46.6 Q116.45 50.45 120.0 49.9 L125.95 46.05 125.95 53.3 120.6 57.55 Q117.75 60.5 121.55 61.85 L128.5 59.3 126.7 66.25 120.3 69.6 Q117.75 72.95 121.65 74.2 L127.75 72.85 124.95 79.45 118.05 80.95 Q115.25 82.2 116.95 84.9 L124.35 86.0 120.35 91.45 113.5 91.9 Q109.3 93.25 111.8 96.35 L118.55 97.95 113.2 102.75 106.45 101.55 Q102.55 101.85 103.85 105.3 L110.2 108.65 104.05 112.0 97.45 109.35 Q93.15 109.9 94.5 112.9 L100.15 117.0 93.15 119.35 87.1 115.3 Q83.5 115.0 83.7 118.0 L88.2 123.25 81.3 124.25 75.55 119.05 Q72.45 117.8 71.95 120.65 L75.5 127.3 68.3 126.45 64.0 120.15 Q61.3 118.5 60.35 120.95 L61.9 128.3 55.3 126.0 52.55 119.0 Q49.75 115.7 48.2 119.3 L48.75 126.4 42.75 122.65 41.1 115.1 Q39.2 112.15 37.25 114.8 L36.05 121.85 30.75 116.8 31.1 109.75 Q30.2 106.15 27.2 108.05 L24.75 114.8 20.3 108.85 22.45 101.95 Q22.15 98.25 18.7 99.7 L14.75 105.35 12.2 98.55 15.5 92.45 Q16.05 88.95 12.4 89.15 L7.5 94.2 6.05 87.3 10.85 80.75 10.9 80.45 12.0 80.6 14.3 79.2 14.95 79.4 Q20.3 97.0 36.3 107.4 54.25 118.95 75.2 114.5 80.1 113.4 84.4 111.65 98.85 105.75 107.75 91.95 119.35 73.95 114.8 53.0 110.35 32.05 92.35 20.45 75.8 9.85 56.85 12.75 L53.4 13.4 Q48.7 14.4 44.5 16.05 L44.4 16.05 Q29.8 22.0 20.8 35.9 19.55 37.85 18.45 39.9 L17.8 38.85 16.3 37.3 14.65 36.0 M2.4 78.95 L5.65 79.55 Q4.0 80.6 2.3 81.7 L2.4 78.95" fill="url(#gradient0)" fill-rule="evenodd" stroke="none"/>
    <path d="M14.95 79.4 L20.0 81.0 Q25.2 95.15 38.6 103.8 55.1 114.4 74.3 110.3 78.75 109.3 82.8 107.7 L83.4 107.4 Q96.15 102.05 104.2 89.6 114.85 73.15 110.65 53.9 106.5 34.7 90.05 24.0 79.55 17.3 68.0 16.45 61.3 16.0 54.35 17.5 49.9 18.45 45.95 20.1 44.1 20.85 42.4 21.75 31.5 27.2 24.4 38.2 22.95 40.45 21.75 42.8 L21.3 42.85 19.85 40.7 19.85 40.65 19.6 40.7 19.0 40.75 18.45 39.9 Q19.55 37.85 20.8 35.9 29.8 22.0 44.4 16.05 L44.5 16.05 Q48.7 14.4 53.4 13.4 L56.85 12.75 Q75.8 9.85 92.35 20.45 110.35 32.05 114.8 53.0 119.35 73.95 107.75 91.95 98.85 105.75 84.4 111.65 80.1 113.4 75.2 114.5 54.25 118.95 36.3 107.4 20.3 97.0 14.95 79.4" fill="url(#gradient1)" fill-rule="evenodd" stroke="none"/>
    <path d="M23.45 82.05 L35.75 85.9 Q37.25 87.9 39.1 89.6 L41.9 91.9 42.5 92.3 Q44.6 93.75 46.85 94.65 L50.7 95.8 57.55 96.0 65.8 94.9 Q69.9 94.15 73.25 92.15 L77.45 88.85 81.25 83.85 Q84.6 81.8 86.55 77.6 88.5 73.4 87.2 64.5 85.85 55.6 84.5 51.7 83.2 47.75 77.5 43.75 L73.25 39.7 68.1 36.7 65.6 35.75 Q62.1 34.8 58.4 35.1 L57.6 35.15 55.45 35.45 54.4 35.1 35.5 37.7 34.35 41.35 25.2 42.4 26.8 39.75 Q33.45 29.4 43.65 24.25 L46.9 22.7 47.0 22.7 Q50.7 21.15 54.9 20.3 61.5 18.85 67.75 19.3 78.65 20.05 88.45 26.4 104.0 36.45 107.9 54.55 111.8 72.55 101.8 88.1 94.3 99.7 82.25 104.8 L81.75 105.05 81.7 105.05 Q77.9 106.6 73.7 107.5 55.65 111.4 40.1 101.4 28.55 93.95 23.45 82.05" fill="url(#gradient2)" fill-rule="evenodd" stroke="none"/>
    <path d="M19.85 40.7 L19.6 40.7 19.85 40.65 19.85 40.7" fill="#ffffff" fill-rule="evenodd" stroke="none"/>
    <path d="M20.0 81.0 L23.45 82.05 Q28.55 93.95 40.1 101.4 55.65 111.4 73.7 107.5 77.9 106.6 81.7 105.05 L81.75 105.05 82.25 104.8 Q94.3 99.7 101.8 88.1 111.8 72.55 107.9 54.55 104.0 36.45 88.45 26.4 78.65 20.05 67.75 19.3 61.5 18.85 54.9 20.3 50.7 21.15 47.0 22.7 L46.9 22.7 43.65 24.25 Q33.45 29.4 26.8 39.75 L25.2 42.4 21.75 42.8 Q22.95 40.45 24.4 38.2 31.5 27.2 42.4 21.75 44.1 20.85 45.95 20.1 49.9 18.45 54.35 17.5 61.3 16.0 68.0 16.45 79.55 17.3 90.05 24.0 106.5 34.7 110.65 53.9 114.85 73.15 104.2 89.6 96.15 102.05 83.4 107.4 L82.8 107.7 Q78.75 109.3 74.3 110.3 55.1 114.4 38.6 103.8 25.2 95.15 20.0 81.0" fill="url(#gradient3)" fill-rule="evenodd" stroke="none"/>
    <path d="M14.65 36.0 L15.4 35.95 Q19.15 34.15 15.95 31.65 L9.4 29.9 15.15 25.35 21.85 26.55 Q25.8 25.95 24.3 22.6 L18.05 19.6 24.2 16.0 30.7 18.5 Q34.95 17.9 33.35 15.0 L27.9 10.3 35.0 8.75 41.3 12.6 Q44.85 13.0 44.65 9.8 L40.35 4.45 46.8 3.95 52.45 9.3 Q55.3 9.95 56.1 7.25 L53.85 0.75 59.9 1.7 63.65 7.55 Q66.45 9.5 68.15 6.65 L66.8 0.3 73.1 2.15 75.5 8.65 Q77.1 11.05 80.05 8.85 L80.15 1.85 85.75 5.25 86.75 12.2 Q88.7 14.7 90.95 13.35 L92.3 7.05 97.5 11.0 97.1 19.0 Q98.45 21.1 100.7 20.1 L103.8 13.15 107.8 18.75 105.85 25.7 Q105.8 29.5 109.45 28.35 L113.45 22.45 116.1 29.4 113.2 34.7 Q111.8 38.65 115.8 38.25 L121.0 33.95 122.45 40.75 117.5 46.6 Q116.45 50.45 120.0 49.9 L125.95 46.05 125.95 53.3 120.6 57.55 Q117.75 60.5 121.55 61.85 L128.5 59.3 126.7 66.25 120.3 69.6 Q117.75 72.95 121.65 74.2 L127.75 72.85 124.95 79.45 118.05 80.95 Q115.25 82.2 116.95 84.9 L124.35 86.0 120.35 91.45 113.5 91.9 Q109.3 93.25 111.8 96.35 L118.55 97.95 113.2 102.75 106.45 101.55 Q102.55 101.85 103.85 105.3 L110.2 108.65 104.05 112.0 97.45 109.35 Q93.15 109.9 94.5 112.9 L100.15 117.0 93.15 119.35 87.1 115.3 Q83.5 115.0 83.7 118.0 L88.2 123.25 81.3 124.25 75.55 119.05 Q72.45 117.8 71.95 120.65 L75.5 127.3 68.3 126.45 64.0 120.15 Q61.3 118.5 60.35 120.95 L61.9 128.3 55.3 126.0 52.55 119.0 Q49.75 115.7 48.2 119.3 L48.75 126.4 42.75 122.65 41.1 115.1 Q39.2 112.15 37.25 114.8 L36.05 121.85 30.75 116.8 31.1 109.75 Q30.2 106.15 27.2 108.05 L24.75 114.8 20.3 108.85 22.45 101.95 Q22.15 98.25 18.7 99.7 L14.75 105.35 12.2 98.55 15.5 92.45 Q16.05 88.95 12.4 89.15 L7.5 94.2 6.05 87.3 10.85 80.75 10.9 80.45 M25.2 42.4 L26.8 39.75 Q33.45 29.4 43.65 24.25 L46.9 22.7 47.0 22.7 Q50.7 21.15 54.9 20.3 61.5 18.85 67.75 19.3 78.65 20.05 88.45 26.4 104.0 36.45 107.9 54.55 111.8 72.55 101.8 88.1 94.3 99.7 82.25 104.8 L81.75 105.05 81.7 105.05 Q77.9 106.6 73.7 107.5 55.65 111.4 40.1 101.4 28.55 93.95 23.45 82.05 M18.45 39.9 Q19.55 37.85 20.8 35.9 29.8 22.0 44.4 16.05 L44.5 16.05 Q48.7 14.4 53.4 13.4 L56.85 12.75 Q75.8 9.85 92.35 20.45 110.35 32.05 114.8 53.0 119.35 73.95 107.75 91.95 98.85 105.75 84.4 111.65 80.1 113.4 75.2 114.5 54.25 118.95 36.3 107.4 20.3 97.0 14.95 79.4 M21.75 42.8 Q22.95 40.45 24.4 38.2 31.5 27.2 42.4 21.75 44.1 20.85 45.95 20.1 49.9 18.45 54.35 17.5 61.3 16.0 68.0 16.45 79.55 17.3 90.05 24.0 106.5 34.7 110.65 53.9 114.85 73.15 104.2 89.6 96.15 102.05 83.4 107.4 L82.8 107.7 Q78.75 109.3 74.3 110.3 55.1 114.4 38.6 103.8 25.2 95.15 20.0 81.0 M2.4 78.95 L2.3 81.7 Q4.0 80.6 5.65 79.55" fill="none" stroke="#333333" stroke-linecap="round" stroke-linejoin="round" stroke-opacity="0.29803923" stroke-width="1.0"/>
  </g>
  <defs>
    <linearGradient gradientTransform="matrix(0.0154, 0.1079, -0.1155, 0.0164, 157.3, 67.6)" gradientUnits="userSpaceOnUse" id="gradient0" spreadMethod="pad" x1="-819.2" x2="819.2">
      <stop offset="0.0" stop-color="#666666"/>
      <stop offset="0.22745098039215686" stop-color="#cccccc"/>
      <stop offset="1.0" stop-color="#333333"/>
    </linearGradient>
    <radialGradient cx="0" cy="0" gradientTransform="matrix(0.1453, -0.0313, 0.0313, 0.1453, 62.6, 61.6)" gradientUnits="userSpaceOnUse" id="gradient1" r="819.2" spreadMethod="pad">
      <stop offset="0.0" stop-color="#a0a0a0"/>
      <stop offset="0.4627450980392157" stop-color="#5c5c5c"/>
      <stop offset="1.0" stop-color="#333333"/>
    </radialGradient>
    <radialGradient cx="0" cy="0" gradientTransform="matrix(0.0807, -0.0174, 0.0174, 0.0807, 66.25, 63.2)" gradientUnits="userSpaceOnUse" id="gradient2" r="819.2" spreadMethod="pad">
      <stop offset="0.16470588235294117" stop-color="#333333"/>
      <stop offset="0.4627450980392157" stop-color="#5c5c5c"/>
      <stop offset="0.6392156862745098" stop-color="#777777"/>
      <stop offset="0.8941176470588236" stop-color="#a0a0a0"/>
    </radialGradient>
    <radialGradient cx="0" cy="0" gradientTransform="matrix(0.1543, -0.0333, 0.0106, 0.049, 63.0, 65.85)" gradientUnits="userSpaceOnUse" id="gradient3" r="819.2" spreadMethod="pad">
      <stop offset="0.17254901960784313" stop-color="#57b6ff"/>
      <stop offset="0.5529411764705883" stop-color="#1676ff"/>
      <stop offset="1.0" stop-color="#1954ff"/>
    </radialGradient>
  </defs>
</svg>
