<?xml version="1.0" encoding="utf-8"?>
<svg xmlns:xlink="http://www.w3.org/1999/xlink" xmlns="http://www.w3.org/2000/svg" viewBox="0 0 100 100" width="100" height="100">
  <path transform="matrix(1.5, 0, 0, 1.4, 50, 50)" d="M-32.4 37.0 L-32.4 27.7 -14.7 27.7 -14.7 37.0 -32.4 37.0 M-32.4 -15.9 L-14.7 -15.9 -14.7 25.9 -32.4 25.9 -32.4 -15.9 M-32.5 -19.6 Q-30.8 -32.2 -23.5 -36.1 -16.3 -32.2 -14.5 -19.6 L-14.5 -17.8 -32.5 -17.8 -32.5 -19.6 M-8.4 -15.9 L9.3 -15.9 9.3 25.9 -8.4 25.9 -8.4 -15.9 M-8.4 37.0 L-8.4 27.7 9.3 27.7 9.3 37.0 -8.4 37.0 M15.6 37.0 L15.6 27.7 33.3 27.7 33.3 37.0 15.6 37.0 M15.5 -19.6 Q17.2 -32.2 24.5 -36.1 31.7 -32.2 33.5 -19.6 L33.5 -17.8 15.5 -17.8 15.5 -19.6 M15.6 -15.9 L33.3 -15.9 33.3 25.9 15.6 25.9 15.6 -15.9 M-8.5 -19.6 Q-6.8 -32.2 0.5 -36.1 7.7 -32.2 9.5 -19.6 L9.5 -17.8 -8.5 -17.8 -8.5 -19.6" fill="url(#gradient0)" fill-rule="evenodd" stroke="none"></path>
  <defs>
    <linearGradient gradientTransform="matrix(0, -0.0446, 0.0403, 0, 0.5, 0.45)" gradientUnits="userSpaceOnUse" id="gradient0" spreadMethod="pad" x1="-819.2" x2="819.2">
      <stop offset="0" stop-color="#ff9900"></stop>
      <stop offset="1" stop-color="#ffcc00"></stop>
    </linearGradient>
  </defs>
</svg>
