<?xml version="1.0" encoding="utf-8"?>
<svg xmlns="http://www.w3.org/2000/svg" xmlns:xlink="http://www.w3.org/1999/xlink" viewbox="0 0 160 160" width="160" height="160">
  <path fill="#0088BB" d="M77.6 20.8L92 20.8L92 38.4L77.6 20.8M92 103.6L92 111.2L88.8 107.2L92 103.6M68.4 104L65.6 107.2L68.4 110.8L68.4 138L36.8 116.4L9.2 50.8L9.2 36.8L52 20.8L54.4 20.8L68.4 38.4L68.4 104" />
  <path fill="#006688" d="M92 111.2L92 103.6L118.8 72L92 38.4L92 20.8L108.4 20.8L151.2 36.8L151.2 50.4L123.2 116.4L105.6 128.4L92 111.2M68.4 110.8L82.4 128.4L68.4 138L68.4 110.8M68.4 38.4L95.2 72L68.4 104L68.4 38.4" />
  <path fill="#00BBFF" d="M77.6 20.8L73.6 15.2L110 15.2L155.2 32.4L155.2 52.4L126.4 120.8L108.8 132.8L105.6 128.4L123.2 116.4L151.2 50.4L151.2 36.8L108.4 20.8L92 20.8L77.6 20.8M52 20.8L9.2 36.8L9.2 50.8L36.8 116.4L68.4 138L82.4 128.4L85.6 132.8L68.4 144.8L33.6 120.8L4.8 52.4L4.8 32.4L50.4 15.2L54.4 20.8L52 20.8" />
</svg>