<?xml version="1.0" encoding="utf-8"?>
<svg xmlns="http://www.w3.org/2000/svg" xmlns:xlink="http://www.w3.org/1999/xlink" viewbox="0 0 160 160" width="160" height="160">
  <path fill="#DDDDDD" d="M131.6 47.2L144 39.6L147.2 44.8L134.4 52.4L149.2 60L144.4 63.2L129.2 55.2L114 64L134.8 75.2L129.6 78L108.8 67.2L86 80L108.8 93.2L129.6 82L134.8 84.8L113.6 96L129.2 105.2L144.4 96.8L149.2 100L134.4 108L146.8 115.2L144 120.4L131.2 113.2L132 130L126.8 127.2L126.4 110.4L110.8 101.2L111.6 125.2L106.4 122L105.6 98.4L82.8 85.2L82.8 111.2L103.2 124L103.2 130L82.8 117.2L82.8 135.2L97.2 144L97.2 150L82.8 140.8L82.8 155.6L76.8 155.6L76.8 140.8L62.8 150L62.8 144L76.8 135.2L76.8 117.2L56.8 130L56.8 124L76.8 111.2L76.8 85.2L54.4 98.4L53.6 122L48.4 125.2L49.2 101.2L33.6 110L33.2 127.2L28.4 130L28.8 113.2L16 120.4L13.2 115.2L25.6 108L10.8 100L16 96.8L30.8 104.8L46.4 96L25.2 84.8L30.4 82L51.2 93.2L74 80L51.6 66.8L30.4 78L25.2 75.2L46.4 64L30.8 54.8L16 63.2L10.8 60L26 52L13.2 44.8L16 39.6L28.8 46.8L28.4 30L33.2 32.8L34 50L49.2 58.8L48.4 34.8L53.6 38L54.4 61.6L77.2 74.8L77.2 48.8L56.8 36L56.8 30L77.2 42.8L77.2 24.8L62.8 16L62.8 10L77.2 19.2L77.2 4.4L83.2 4.4L83.2 19.2L97.2 10L97.2 16L83.2 24.8L83.2 42.8L103.2 30L103.2 36L83.2 48.8L83.2 75.2L105.6 62L106.4 38L111.6 34.8L110.8 58.8L126.4 50L126.8 32.8L132 30L131.6 47.2" />
</svg>
