<?xml version="1.0" encoding="utf-8"?>
<svg xmlns="http://www.w3.org/2000/svg" xmlns:xlink="http://www.w3.org/1999/xlink" viewbox="0 0 160 160" width="160" height="160">
  <linearGradient id="grad" gradientUnits="userSpaceOnUse" gradientTransform="matrix(0, -0.0794678, 0.0946045, 0, 81.2, 80)" spreadMethod ="pad" x1="-819.2" y1="0" x2="819.2" y2="0" >
    <stop offset="0" stop-color="#FF3300"/>
    <stop offset="1" stop-color="#FF6600"/>
  </linearGradient>
  <path fill="url(#grad)" d="M137.2 52.4Q164 74.4 140.4 110.4Q148.8 118.4 158.4 96.8Q156.8 137.6 132.8 142.8Q108.8 148 91.2 142Q60.4 131.6 64.8 92.8Q71.2 110.4 85.6 110.4Q64.4 89.6 86 48.8Q80.8 76 96.8 78.4Q120 56 92.8 14.8Q125.6 17.6 129.2 92Q146.4 73.6 137.2 52.4M3.6 86.8L3.6 74L26.4 74L26.4 51.2L39.2 51.2L39.2 74L62.4 74L62.4 86.8L39.2 86.8L39.2 110L26.4 110L26.4 86.8L3.6 86.8M124 123.2Q133.6 114 123.6 95.6Q126 107.6 118.8 108.8Q108.4 98.8 120.4 80.4Q106 81.6 104.4 115.2Q96.8 106.8 100.8 97.2Q88.8 107.2 99.2 123.2Q95.6 126.8 90.8 117.2Q91.6 135.2 102.8 138Q113.2 140 121.2 137.6Q135.2 132.8 133.2 115.6Q130.4 123.2 124 123.2" />
</svg>
