<?xml version="1.0" encoding="utf-8"?>
<svg xmlns="http://www.w3.org/2000/svg" xmlns:xlink="http://www.w3.org/1999/xlink" viewbox="0 0 160 160" width="160" height="160">
  <path fill="#DDDDDD" d="M140.8 18.4Q115.2 44 115.2 80Q115.2 116 140.8 141.6L145.6 146Q128.8 141.6 115.2 128.8L114.4 128Q94.4 108 94.4 80Q94.4 52 114.4 32L115.2 31.2Q128.8 18 145.6 14L140.8 18.4M100.8 18.4Q75.2 44 75.2 80Q75.2 116 100.8 141.6L105.6 146Q88.8 141.6 75.2 128.8L74.4 128Q54.4 108 54.4 80Q54.4 52 74.4 32L75.2 31.2Q88.8 18 105.6 14L100.8 18.4M60.8 18.4Q35.2 44 35.2 80Q35.2 116 60.8 141.6L65.6 146Q48.8 141.6 35.2 128.8L34.4 128Q14.4 108 14.4 80Q14.4 52 34.4 32L35.2 31.2Q48.8 18 65.6 14L60.8 18.4" />
</svg>
