<?xml version="1.0" encoding="utf-8"?>
<svg xmlns="http://www.w3.org/2000/svg" xmlns:xlink="http://www.w3.org/1999/xlink" viewbox="0 0 160 160" width="160" height="160">
  <path fill="#DDDDDD" d="M125.6 32Q145.6 52 145.6 80Q145.6 108 125.6 128L124.8 128.8Q111.2 141.6 94.4 146L99.2 141.6Q124.8 116 124.8 80Q124.8 44 99.2 18.4L94.4 14Q111.2 18 124.8 31.2L125.6 32M85.6 32Q105.6 52 105.6 80Q105.6 108 85.6 128L84.8 128.8Q71.2 141.6 54.4 146L59.2 141.6Q84.8 116 84.8 80Q84.8 44 59.2 18.4L54.4 14Q71.2 18 84.8 31.2L85.6 32M45.6 32Q65.6 52 65.6 80Q65.6 108 45.6 128L44.8 128.8Q31.2 141.6 14.4 146L19.2 141.6Q44.8 116 44.8 80Q44.8 44 19.2 18.4L14.4 14Q31.2 18 44.8 31.2L45.6 32" />
</svg>
