<?xml version="1.0" encoding="utf-8"?>
<svg xmlns="http://www.w3.org/2000/svg" xmlns:xlink="http://www.w3.org/1999/xlink" viewbox="0 0 160 160" width="160" height="160">
  <path fill="#DDDDDD" d="M100 31.1Q100 37.85 96 43.45L132 43.45L160 149.15L0 149.15L28 43.45L64 43.45Q59.95 38.3 59.65 32.2L59.6 31.1Q59.6 22.4 65.6 16.8Q68.6 13.8 72.25 12.3Q75.6 10.95 79.5 10.85L80.5 10.85Q87.8 11 93.25 15.75L94.4 16.8Q96.85 19.25 98.25 22.3Q100 26.2 100 31.1M87.6 23.15L87.25 22.9Q83.8 20.4 80 20.4Q76 20.4 72.8 23.15Q69.6 26.75 69.6 31.1Q69.6 35.5 72.8 38.25Q76 41.45 80 41.45Q82.1 41.45 84.1 40.6L87.6 38.25Q90.8 35.5 90.8 31.1Q90.8 26.75 87.6 23.15M114.4 72.45L106.4 71.65Q102.4 71.65 98 73.25Q96.8 73.8 95.7 74.45Q92.8 76.25 90.8 78.8L88.8 81.1Q86.95 83.6 85.6 86.75L85.05 88.65Q84 92.85 84 98.3Q84 110.2 88.8 116.55Q94.4 123.7 103.6 123.7Q109.6 123.7 113.2 122.55Q116.8 120.95 120.4 117.35L120.4 122.55Q120.4 125.7 119.6 128.1L117.6 132.85Q116 134.05 113.2 135.25Q110.4 136.45 105.6 136.45L96.4 135.25L89.6 132.85L88.8 132.85L88.8 142L104.8 144.4Q117.2 144.4 123.6 138.45Q128.8 131.65 128.8 118.95L128.8 72.85L121.2 72.85L120.4 75.25L116.35 73.2L114.4 72.45M98.15 82.9Q101.95 79.2 108 79.2L114 80Q115.9 80.5 118.2 81.45L120.4 82.4L120.4 110.2Q117.2 112.6 113.6 114.2Q109.6 115.8 106 115.8Q98.8 115.8 95.6 111.8Q92.4 106.6 92.4 98.3Q92.4 92.6 94.1 88.65Q95.1 86.2 96.8 84.35L98.15 82.9M43.6 52.6L34.4 52.6L34.4 124.5L43.6 124.5L43.6 107.4L48.8 102.25L69.6 124.5L81.2 124.5L55.6 96.7L79.6 72.85L68.8 72.85L43.6 98.65L43.6 52.6" />
</svg>
